<svg xmlns="http://www.w3.org/2000/svg" viewBox="0 0 1024 1024" width="1024" height="1024">
  <defs>
    <linearGradient id="bg" x1="0%" y1="0%" x2="100%" y2="100%">
      <stop offset="0%" style="stop-color:#2a2a2a"/>
      <stop offset="100%" style="stop-color:#1a1a1a"/>
    </linearGradient>
  </defs>
  <rect width="1024" height="1024" rx="192" ry="192" fill="url(#bg)"/>
  <!-- Person head with Wayfarer glasses -->
  <ellipse cx="280" cy="500" rx="95" ry="115" fill="none" stroke="white" stroke-width="10"/>
  <rect x="195" y="450" width="90" height="58" rx="6" fill="none" stroke="white" stroke-width="8"/>
  <rect x="295" y="450" width="90" height="58" rx="6" fill="none" stroke="white" stroke-width="8"/>
  <line x1="285" y1="475" x2="295" y2="475" stroke="white" stroke-width="6"/>
  <path d="M185 472 L165 545 M385 472 L405 545" stroke="white" stroke-width="6" fill="none"/>
  <!-- Speech lines -->
  <path d="M355 505 Q415 485 455 505" fill="none" stroke="white" stroke-width="5"/>
  <path d="M360 522 Q415 505 455 522" fill="none" stroke="white" stroke-width="4"/>
  <!-- Microphone -->
  <ellipse cx="620" cy="360" rx="50" ry="38" fill="none" stroke="white" stroke-width="10"/>
  <rect x="608" y="398" width="24" height="120" rx="4" fill="none" stroke="white" stroke-width="8"/>
  <path d="M590 518 L650 518 L665 540 L575 540 Z" fill="none" stroke="white" stroke-width="8"/>
  <!-- Sound wave -->
  <path d="M700 360 Q745 335 790 360 Q835 385 880 360" fill="none" stroke="white" stroke-width="7"/>
  <path d="M705 390 Q755 370 805 390 Q855 410 895 390" fill="none" stroke="white" stroke-width="5"/>
  <!-- LIVE badge -->
  <rect x="775" y="265" width="155" height="70" rx="10" fill="#E74C3C"/>
  <text x="852" y="312" font-family="system-ui,-apple-system,Segoe UI,sans-serif" font-size="26" font-weight="bold" fill="white" text-anchor="middle">LIVE</text>
</svg>
